<svg xmlns="http://www.w3.org/2000/svg" width="209.923" height="209.923" viewBox="0 0 209.923 209.923">
  <g id="_22_Video_Player" data-name="22_Video Player" transform="translate(-2 -2)">
    <path id="Path_64" data-name="Path 64" d="M201.427,162.941H12.5A10.5,10.5,0,0,1,2,152.445V12.5A10.5,10.5,0,0,1,12.5,2h188.93a10.5,10.5,0,0,1,10.5,10.5V152.445a10.5,10.5,0,0,1-10.5,10.5Z" transform="translate(0 0)" fill="#272f56"/>
    <path id="Path_65" data-name="Path 65" d="M170.439,138.951H13a7,7,0,0,1-7-7V13a7,7,0,0,1,7-7H166.941a7,7,0,0,1,7,7V135.452A3.5,3.5,0,0,1,170.439,138.951Z" transform="translate(9.995 9.995)" fill="#fdfeff"/>
    <path id="Path_66" data-name="Path 66" d="M13,131.954V13a7,7,0,0,1,7-7H13a7,7,0,0,0-7,7V131.954a7,7,0,0,0,7,7h7A7,7,0,0,1,13,131.954Z" transform="translate(9.995 9.995)" fill="#dfeaef"/>
    <circle id="Ellipse_8" data-name="Ellipse 8" cx="31.56" cy="31.56" r="31.56" transform="translate(75.251 51.093)" fill="#272f56"/>
    <path id="Path_68" data-name="Path 68" d="M61.483,67.679A31.45,31.45,0,0,1,36.016,17.721,31.464,31.464,0,1,0,79.953,61.658,31.317,31.317,0,0,1,61.483,67.679Z" transform="translate(52.476 39.282)" fill="#272f56"/>
    <path id="Path_69" data-name="Path 69" d="M32.5,48.991a3.5,3.5,0,0,1-3.5-3.5V24.5a3.5,3.5,0,0,1,5.063-3.131l20.992,10.5a3.5,3.5,0,0,1,.91,5.6c-.553.553-.553.553-21.909,11.157A3.5,3.5,0,0,1,32.5,48.991Z" transform="translate(67.465 47.474)" fill="#fff"/>
    <path id="Path_70" data-name="Path 70" d="M55.055,31.865l-.7-.35c-3.11,1.55-7.347,3.656-13.3,6.613A3.5,3.5,0,0,1,36,35V22.338l-1.935-.969A3.5,3.5,0,0,0,29,24.5V45.492a3.5,3.5,0,0,0,5.056,3.149C55.4,38.036,55.4,38.036,55.965,37.484a3.5,3.5,0,0,0-.91-5.6Z" transform="translate(67.465 47.474)" fill="#fff"/>
    <path id="Path_71" data-name="Path 71" d="M43.488,36H12v7h97.964V36Z" transform="translate(24.987 84.956)" fill="#272f56"/>
    <rect id="Rectangle_17" data-name="Rectangle 17" width="14.027" height="14.027" rx="2" transform="translate(190.581 75.251)" fill="#fff"/>
    <path id="Path_72" data-name="Path 72" d="M66.515,33.046a6.969,6.969,0,0,1-6.368-9.866,7,7,0,1,0,9.237,9.237A6.962,6.962,0,0,1,66.515,33.046Z" transform="translate(134.911 52.923)" fill="#fff"/>
    <path id="Path_73" data-name="Path 73" d="M108.5,79.481a7,7,0,0,0-7,7v-10.5a7,7,0,0,0-13.995,0V61.987a7,7,0,0,0-13.995,0V34a7,7,0,0,0-13.995,0v70.576a4.345,4.345,0,0,1-7.421,3.072L38.531,94.077a7,7,0,1,0-9.9,9.9l14.842,14.844,6.249,6.235a34.511,34.511,0,0,1,10.1,24.4h46.62v-1.316a23.983,23.983,0,0,1,4.527-14.022,23.963,23.963,0,0,0,4.531-14.024V86.478A7,7,0,0,0,108.5,79.481Z" transform="translate(61.433 62.468)" fill="#ecc19c"/>
    <path id="Path_74" data-name="Path 74" d="M23,48.995a7,7,0,1,1,7-7A7,7,0,0,1,23,48.995Z" transform="translate(34.982 82.457)" fill="#ff6902"/>
    <path id="Path_75" data-name="Path 75" d="M26.515,45.046a6.969,6.969,0,0,1-6.368-9.866,7,7,0,1,0,9.237,9.237A6.962,6.962,0,0,1,26.515,45.046Z" transform="translate(34.963 82.907)" fill="#ff6902"/>
  </g>
</svg>
