<svg xmlns="http://www.w3.org/2000/svg" width="185.691" height="184.523" viewBox="0 0 185.691 184.523">
  <g id="Coding" transform="translate(-80.251 -390.39)">
    <g id="Group_30" data-name="Group 30" transform="translate(80.251 390.39)">
      <g id="Group_29" data-name="Group 29">
        <g id="Group_27" data-name="Group 27">
          <path id="Path_64" data-name="Path 64" d="M265.942,409.081V525.652a18.712,18.712,0,0,1-18.686,18.686H208.317l2.546,16.56h3.41a7.007,7.007,0,1,1,0,14.014H131.915a7.007,7.007,0,1,1,0-14.014h3.41l2.546-16.56H98.937a18.709,18.709,0,0,1-18.686-18.686V409.076A18.709,18.709,0,0,1,98.937,390.39H247.256A18.712,18.712,0,0,1,265.942,409.081ZM251.928,525.657V506.712H94.265v18.94a4.73,4.73,0,0,0,4.671,4.671H247.256a4.732,4.732,0,0,0,4.671-4.671Zm0-32.96V409.078a4.732,4.732,0,0,0-4.671-4.671H98.937a4.727,4.727,0,0,0-4.671,4.671V492.7H123.6l-9.74-2.917a7.007,7.007,0,0,1-5-6.729V467.168a7.03,7.03,0,0,1,5-6.727l12.87-3.856c.142-.4.3-.768.49-1.168l-6.377-11.84a6.989,6.989,0,0,1,1.215-8.269L133.3,424.071a6.988,6.988,0,0,1,8.268-1.215l11.84,6.377c.4-.185.771-.325,1.168-.49l3.854-12.868a7.007,7.007,0,0,1,6.727-5h15.883a7.007,7.007,0,0,1,6.727,5l3.854,12.868c.4.166.771.306,1.168.49l11.844-6.377a7.007,7.007,0,0,1,8.266,1.215l11.235,11.261a6.977,6.977,0,0,1,1.215,8.269l-6.353,11.842c.164.374.327.768.467,1.142l12.87,3.856a7.035,7.035,0,0,1,5,6.727v15.883a7.019,7.019,0,0,1-5,6.729l-9.738,2.917Zm-28.613-14.855v-5.463l-11.261-3.389a6.886,6.886,0,0,1-4.671-4.6,35.971,35.971,0,0,0-2.453-5.909,6.951,6.951,0,0,1,.023-6.563l5.582-10.371-3.877-3.875-10.371,5.58a6.94,6.94,0,0,1-6.563.023,38.014,38.014,0,0,0-5.909-2.45,6.9,6.9,0,0,1-4.6-4.671l-3.387-11.258h-5.466l-3.387,11.258a6.928,6.928,0,0,1-4.625,4.672,36.629,36.629,0,0,0-5.886,2.473,7.052,7.052,0,0,1-6.587-.047l-10.371-5.58-3.854,3.875,5.582,10.35a6.993,6.993,0,0,1,.023,6.584,36.177,36.177,0,0,0-2.453,5.909,6.968,6.968,0,0,1-4.671,4.6l-11.258,3.389v5.463l11.256,3.387a7.007,7.007,0,0,1,4.672,4.627,37.272,37.272,0,0,0,2.452,5.86,5.574,5.574,0,0,1,.374.981h13.127a25.436,25.436,0,1,1,36.671,0h13.106c.114-.325.234-.628.371-.958a36.6,36.6,0,0,0,2.476-5.884,6.923,6.923,0,0,1,4.671-4.627ZM196.687,560.9l-2.572-16.565H152.049L149.5,560.9Zm-12.169-85.792A11.422,11.422,0,1,0,173.1,486.534a11.422,11.422,0,0,0,11.421-11.422Z" transform="translate(-80.251 -390.39)" fill="#272f56"/>
          <path id="Path_65" data-name="Path 65" d="M194.292,401.063v83.619H164.955l9.738-2.917a7.019,7.019,0,0,0,5-6.729V459.153a7.035,7.035,0,0,0-5-6.727l-12.87-3.856c-.14-.374-.3-.769-.467-1.142l6.353-11.842a6.977,6.977,0,0,0-1.215-8.269l-11.235-11.26a7.007,7.007,0,0,0-8.266-1.215l-11.844,6.377c-.4-.185-.771-.325-1.168-.491l-3.854-12.868a7.007,7.007,0,0,0-6.727-5v-6.47h66.22A4.732,4.732,0,0,1,194.292,401.063Z" transform="translate(-22.615 -382.373)" fill="#fff"/>
          <path id="Path_66" data-name="Path 66" d="M198.935,452.647v5.463L187.675,461.5A6.923,6.923,0,0,0,183,466.125a36.613,36.613,0,0,1-2.476,5.884c-.14.329-.257.633-.371.958h-13.1a25.436,25.436,0,1,0-36.671,0H117.255a5.576,5.576,0,0,0-.374-.981,37.278,37.278,0,0,1-2.453-5.86,7.007,7.007,0,0,0-4.671-4.627L98.5,458.111v-5.463l11.256-3.389a6.968,6.968,0,0,0,4.671-4.6,36.171,36.171,0,0,1,2.453-5.909,6.993,6.993,0,0,0-.023-6.584l-5.582-10.35,3.854-3.875,10.371,5.58a7.052,7.052,0,0,0,6.587.047,36.634,36.634,0,0,1,5.886-2.473,6.928,6.928,0,0,0,4.625-4.671l3.387-11.258h5.466l3.387,11.258a6.9,6.9,0,0,0,4.6,4.671,38.02,38.02,0,0,1,5.909,2.45,6.939,6.939,0,0,0,6.563-.023l10.371-5.58,3.877,3.875-5.582,10.371a6.951,6.951,0,0,0-.023,6.563,35.965,35.965,0,0,1,2.452,5.909,6.886,6.886,0,0,0,4.672,4.6Z" transform="translate(-55.874 -370.658)" fill="#fff"/>
          <path id="Path_67" data-name="Path 67" d="M154.513,456.3l2.569,16.56H109.9l2.546-16.56Z" transform="translate(-40.648 -302.352)" fill="#e1d4c0"/>
          <path id="Path_68" data-name="Path 68" d="M126.533,421.771A11.424,11.424,0,1,1,115.109,433.2a11.424,11.424,0,0,1,11.424-11.424Z" transform="translate(-33.69 -348.473)" fill="#fff"/>
          <path id="Path_69" data-name="Path 69" d="M128.959,444.233a7.007,7.007,0,1,1-9.9,0,6.89,6.89,0,0,1,4.954-1.941,6.96,6.96,0,0,1,4.949,1.941Z" transform="translate(-31.164 -321.065)" fill="#272f56"/>
          <path id="Path_70" data-name="Path 70" d="M124.952,456.964A6.906,6.906,0,0,0,120,445.1v-4.9h78.831v18.94a4.732,4.732,0,0,1-4.671,4.672H120v-4.812A7.12,7.12,0,0,0,124.952,456.964Z" transform="translate(-27.157 -323.869)" fill="#fff"/>
          <path id="Path_71" data-name="Path 71" d="M165.08,463.806H90.922a4.73,4.73,0,0,1-4.671-4.671V440.189H165.08v4.905a6.89,6.89,0,0,0-4.954,1.941,7.007,7.007,0,0,0,4.954,11.959Z" transform="translate(-72.237 -323.872)" fill="#fff"/>
          <path id="Path_72" data-name="Path 72" d="M157.138,402.862a7.007,7.007,0,0,0-6.727,5l-3.854,12.868c-.4.166-.771.306-1.168.49l-11.84-6.377a6.988,6.988,0,0,0-8.269,1.215l-11.237,11.237a6.988,6.988,0,0,0-1.215,8.269l6.377,11.84c-.187.4-.348.771-.491,1.168l-12.87,3.856a7.03,7.03,0,0,0-5,6.727v15.883a7.007,7.007,0,0,0,5,6.729l9.74,2.917H86.251V401.063a4.728,4.728,0,0,1,4.671-4.671h82.1v6.47Z" transform="translate(-72.237 -382.373)" fill="#fff"/>
        </g>
      </g>
    </g>
  </g>
</svg>
