<svg xmlns="http://www.w3.org/2000/svg" width="232.824" height="190.598" viewBox="0 0 232.824 190.598">
  <g id="woman-to-consult-svgrepo-com" transform="translate(-0.001)">
    <path id="Path_6" data-name="Path 6" d="M216.692,227.563a5.868,5.868,0,0,0-2.991,1.875,8.928,8.928,0,0,0-1.888,5.573,27.947,27.947,0,0,0,.716,5.944,2.462,2.462,0,0,1-.167,1.932l1.913.784c.668-2.359,1.538-4.687,2.412-6.953.862-2.237,2.109-5.25,3.554-8.6A4.384,4.384,0,0,0,216.692,227.563Z" transform="translate(-81.473 -87.472)" fill="#fff"/>
    <path id="Path_7" data-name="Path 7" d="M253.026,273.935c0,6.769-.083,13.47-1.877,20.049a1.232,1.232,0,0,0,2.373.655c1.85-6.787,1.965-13.718,1.965-20.7A1.231,1.231,0,0,0,253.026,273.935Z" transform="translate(-96.585 -104.911)" fill="#211715"/>
    <path id="Path_8" data-name="Path 8" d="M154.793,285.663c3.164-.906,6.3-1.941,9.436-2.926q8.907-2.795,17.809-5.609l11.041-3.485c1.505-.475.861-2.852-.654-2.373-11.482,3.624-22.958,7.27-34.455,10.847-1.275.4-2.548.8-3.831,1.173a1.232,1.232,0,0,0,.655,2.373Z" transform="translate(-58.956 -104.32)" fill="#211715"/>
    <path id="Path_9" data-name="Path 9" d="M248.885,72.058a28.41,28.41,0,0,0-.957,6.132c-.487,3.794-1.149,9.06-4.815,10.6a3.564,3.564,0,0,0-1.775,1.465c-1.02,1.812.529,2.822,1.433,4.013a5.863,5.863,0,0,1,1.081,2.6,36.331,36.331,0,0,0,.234,5.56,15.412,15.412,0,0,0,.879,3.8,7.3,7.3,0,0,0,3.638,4.083,17.606,17.606,0,0,0,9.3,1.661,1.271,1.271,0,0,1,1.421.892,33.86,33.86,0,0,1,1.658,4.288l.22.738a26.5,26.5,0,0,1,9-4.563,49.654,49.654,0,0,1,13.752-2.076,3.376,3.376,0,0,1,.67.062c1.5-2.5,4.721-4.7,6.692-6.461a30.046,30.046,0,0,0,10.121-20.184A29.633,29.633,0,0,0,298,69.129c-5.832-10.7-13.353-13.183-18.036-14.239a29.885,29.885,0,0,0-13.628.3c-8.964,2.172-13.548,7.917-14.361,9.215a20.652,20.652,0,0,0-3.4,8.952" transform="translate(-92.701 -20.865)" fill="#fff"/>
    <path id="Path_10" data-name="Path 10" d="M270.885,55.344A24.408,24.408,0,0,0,257.163,64.4a21.684,21.684,0,0,0-2.689,5.635A23.076,23.076,0,0,0,263.208,82.5s3.063.072,5.038.123a22.561,22.561,0,0,0,6.389,5.762,4.123,4.123,0,0,1,1.713-.565,3.642,3.642,0,0,1,2.981.914,5.333,5.333,0,0,1,1.1,4.615,9.179,9.179,0,0,1-3.954,6.179c-.018.634-.03,1.137-.03,1.137a15.946,15.946,0,0,0,3.088,6.83c1.535,1.74,5.7,3.3,8.262,3.877l1.764.384c1.364-2.682,4.85-5.037,6.936-6.907A30.046,30.046,0,0,0,306.62,84.663a29.633,29.633,0,0,0-3.432-15.542c-5.832-10.7-13.353-13.183-18.036-14.239a29.884,29.884,0,0,0-13.628.3Q271.2,55.26,270.885,55.344Z" transform="translate(-97.883 -20.862)"/>
    <path id="Path_11" data-name="Path 11" d="M261.416,127.21a31.916,31.916,0,0,0-1.114-3.059q-.234-.554-.481-1.108c-.041-.091-.08-.185-.123-.273-.117-.234.17.412-.016-.046-.923-2.264-3.446-1.372-5.335-1.525a16.777,16.777,0,0,1-5.879-1.568,6.533,6.533,0,0,1-3.312-4.006,23.353,23.353,0,0,1-.853-6.928,6.867,6.867,0,0,0-2.039-5.645c-.412-.465-.966-.985-.7-1.649.344-.861,1.361-1.071,2.076-1.5a8.207,8.207,0,0,0,3.184-4.024c1.733-4.173,1.321-8.8,2.491-13.107a1.232,1.232,0,0,0-2.373-.654c-1.07,3.938-.819,8.1-2.077,11.993a6.364,6.364,0,0,1-2.546,3.716,7.516,7.516,0,0,0-2.44,1.687,3.551,3.551,0,0,0-.783,2.954c.423,1.908,2.534,2.849,2.765,4.866.113.988-.019,2.056.032,3.055a33.469,33.469,0,0,0,.391,3.726,9.627,9.627,0,0,0,7.787,8.748,16.974,16.974,0,0,0,6.887.759c.489-.062.369-.17.568.292.093.212.192.42.286.631a28.761,28.761,0,0,1,1.231,3.323c.46,1.511,2.837.866,2.373-.655Z" transform="translate(-91.944 -31.25)" fill="#211715"/>
    <path id="Path_12" data-name="Path 12" d="M253.732,72.913a20.488,20.488,0,0,1,1.718-5.907,28.847,28.847,0,0,1,1.438-2.551c.1-.158.2-.314.3-.466.066-.1.369-.492.164-.23a22.174,22.174,0,0,1,6.168-5.281,28.442,28.442,0,0,1,24.06-2c7.021,2.646,12.459,9.14,14.949,16.157a27.545,27.545,0,0,1,1.231,14.412,28.5,28.5,0,0,1-4.749,11.033,34.8,34.8,0,0,1-6.535,6.761,25.333,25.333,0,0,0-4.421,4.307,7.477,7.477,0,0,0-1.494,4.967,27.462,27.462,0,0,0,.242,2.9,1.237,1.237,0,0,0,1.514.861,1.263,1.263,0,0,0,.861-1.514,21.3,21.3,0,0,1-.164-2.85,3.363,3.363,0,0,1,.453-2.007,16.159,16.159,0,0,1,4.157-4.431,41.29,41.29,0,0,0,7.121-7.2,30.021,30.021,0,0,0,4.643-26.393c-2.355-7.9-8.01-15.4-15.68-18.763a30.952,30.952,0,0,0-25.131.431c-5.879,2.736-10.617,7.461-12.495,13.756a25.632,25.632,0,0,0-.73,3.365,1.27,1.27,0,0,0,.862,1.514,1.24,1.24,0,0,0,1.514-.861Z" transform="translate(-96.67 -20.099)" fill="#211715"/>
    <path id="Path_13" data-name="Path 13" d="M285.217,110.039c1.184-.956,3.251-1.292,4.141.231.828,1.415.492,3.165-.027,4.615-1.055,2.948-3.664,4.575-6.581,5.317a1.232,1.232,0,0,0,.654,2.373A11.505,11.505,0,0,0,291,117.157c1.561-2.913,2.278-7.788-1.124-9.757a5.653,5.653,0,0,0-6.4.9,1.239,1.239,0,0,0,0,1.741,1.26,1.26,0,0,0,1.741,0Z" transform="translate(-108.423 -41.065)" fill="#211715"/>
    <path id="Path_14" data-name="Path 14" d="M254.614,100.851c-.539,1.053-.818,3.659,1.146,4.255,2.655.482,3.391-2.593,2.777-4.219C258.035,99.556,255.981,98.655,254.614,100.851Z" transform="translate(-97.785 -38.282)" fill="#211715"/>
    <path id="Path_15" data-name="Path 15" d="M252.475,79.359A24.59,24.59,0,0,0,261.8,92.638a1.241,1.241,0,0,0,1.684-.442,1.258,1.258,0,0,0-.442-1.684,21.9,21.9,0,0,1-8.19-11.808A1.232,1.232,0,0,0,252.475,79.359Z" transform="translate(-97.094 -29.94)" fill="#211715"/>
    <path id="Path_16" data-name="Path 16" d="M267.525,89.03c2.827,4.626,5.8,9.32,10.365,12.425a1.231,1.231,0,0,0,1.242-2.125c-4.189-2.85-6.892-7.3-9.482-11.542-.825-1.349-2.954-.114-2.125,1.242Z" transform="translate(-102.83 -33.543)" fill="#211715"/>
    <path id="Path_17" data-name="Path 17" d="M288.231,129.238a16.576,16.576,0,0,0,1.546,4.5,10.165,10.165,0,0,0,2.5,3.47,15.743,15.743,0,0,0,3.963,2.226,25.88,25.88,0,0,0,4.205,1.369c1.542.353,2.2-2.02.654-2.373a25.534,25.534,0,0,1-3.812-1.207,18.366,18.366,0,0,1-1.761-.82,12.458,12.458,0,0,1-1.509-.934A8.233,8.233,0,0,1,291.9,132.5a14.357,14.357,0,0,1-1.3-3.915,1.24,1.24,0,0,0-1.514-.861,1.26,1.26,0,0,0-.861,1.514Z" transform="translate(-110.852 -49.112)" fill="#211715"/>
    <path id="Path_18" data-name="Path 18" d="M245.461,127.818a15.235,15.235,0,0,0,4.626.381,1.231,1.231,0,0,0,0-2.461,14.784,14.784,0,0,1-3.063-.11l.327.044c-.415-.057-.828-.13-1.235-.227a1.231,1.231,0,1,0-.654,2.373Z" transform="translate(-94.068 -48.235)" fill="#211715"/>
    <path id="Path_19" data-name="Path 19" d="M232.927,175.372c3.249-6.1,7.144-10.219,12.8-12.82a82.478,82.478,0,0,1,19.726-6.392c2.092-.412,4.2-.765,6.312-1.078a25.717,25.717,0,0,1,7.576-.052,15.117,15.117,0,0,1,3.037,1.13,39.1,39.1,0,0,1,13.138,13.592c-13.391,3.9-29.827,8.688-41.708,12.116a11.479,11.479,0,0,0-8.068,10.685c-.554,10.131-.967,20.486-1.41,30.2l-.666.686s-7.558,7.769-7.929,7.742c-3.653,2.408-7.643,4.523-11.854,4.159a14.751,14.751,0,0,1-5.347-1.719,10.682,10.682,0,0,1-4.4-6.973c-1.057-6.034,1.133-12.141,3.339-17.867,3.087-8.014,11.118-25.984,15.519-33.671" transform="translate(-82.261 -59.534)" fill="#272f56"/>
    <path id="Path_20" data-name="Path 20" d="M22.214,141.635c.35-1.623.695-3.045,1.072-4.354-10.061-.655-16.75,7.033-15.445,15.714,1.058,7,2.658,17.965,3.79,25.722,3.315-.634,7.446-1.425,12.2-2.33a19.46,19.46,0,0,1-3.356-6.7c-1.661-5.723-1.323-12.2-.2-18.091C21.05,147.492,21.642,144.293,22.214,141.635Z" transform="translate(-2.953 -52.79)" fill="#fff"/>
    <path id="Path_21" data-name="Path 21" d="M267.525,158.008c2.338-4.386,7.929-7.622,12.879-9.046a49.653,49.653,0,0,1,13.752-2.076h0a2.892,2.892,0,0,1,2.98,2.1l.487,2.389" transform="translate(-102.903 -56.497)" fill="#fff"/>
    <path id="Path_22" data-name="Path 22" d="M267.823,157.861c2.143-3.93,6.433-6.493,10.535-7.961a46.015,46.015,0,0,1,7.97-1.969q2.064-.342,4.152-.483,1.09-.075,2.182-.092a4.252,4.252,0,0,1,1.505.117c1.3.462,1.269,2.315,1.5,3.464.316,1.551,2.69.895,2.373-.654-.3-1.452-.4-3.106-1.524-4.192a4.752,4.752,0,0,0-3.421-1.2,42.465,42.465,0,0,0-4.938.316c-5.669.677-11.526,2.057-16.365,5.209a17.866,17.866,0,0,0-6.1,6.206c-.759,1.391,1.366,2.635,2.125,1.242Z" transform="translate(-102.138 -55.729)" fill="#211715"/>
    <path id="Path_23" data-name="Path 23" d="M153.876,172.6l29.592-5.643h-.654l23.513,6.5a1.232,1.232,0,0,0,.654-2.373q-9.755-2.715-19.518-5.395l-2.273-.628a5.961,5.961,0,0,0-2.491-.453c-1.64.282-3.272.623-4.907.935l-11,2.1-13.573,2.589C151.668,170.519,152.325,172.891,153.876,172.6Z" transform="translate(-58.595 -63.302)" fill="#211715"/>
    <path id="Path_24" data-name="Path 24" d="M341.589,196.659a44.341,44.341,0,0,0,.17-18.8,29.326,29.326,0,0,0-2.858-8.184,38.074,38.074,0,0,0-5.518-7.6,37.549,37.549,0,0,0-8.313-6.887,1.232,1.232,0,0,0-1.242,2.125,36.379,36.379,0,0,1,12.43,12.682c2.876,4.9,3.845,10.692,3.932,16.314a39.18,39.18,0,0,1-.972,9.7c-.369,1.538,2.005,2.2,2.373.655Z" transform="translate(-124.333 -59.621)" fill="#211715"/>
    <path id="Path_25" data-name="Path 25" d="M294.153,154.311c-2.814-1.746-6.565-1.727-9.729-1.428a87.941,87.941,0,0,0-13.013,2.387,81.421,81.421,0,0,0-11.525,3.846,35.268,35.268,0,0,0-9.595,5.406,32.19,32.19,0,0,0-7.273,9.442c-.749,1.4,1.375,2.641,2.125,1.242a31.331,31.331,0,0,1,5.925-8.079,28.417,28.417,0,0,1,8.5-5.222,92.5,92.5,0,0,1,23.226-6.355,26.626,26.626,0,0,1,6.327-.246,9,9,0,0,1,3.789,1.135c1.349.838,2.584-1.292,1.242-2.125Z" transform="translate(-93.416 -58.747)" fill="#211715"/>
    <path id="Path_26" data-name="Path 26" d="M262.52,241.358c.669-12.565,1.175-26.989,1.935-40.982a11.479,11.479,0,0,1,8.068-10.685c14.149-4.082,34.756-10.1,48.99-14.234a8.6,8.6,0,0,1,11.059,8.362c-.293,9.458-2.106,21.73-3,31.014" transform="translate(-100.978 -67.355)" fill="#fff"/>
    <path id="Path_27" data-name="Path 27" d="M262.981,240.61c.609-11.466,1.033-22.942,1.6-34.41.224-4.564-.223-9.728,3.113-13.34a10.592,10.592,0,0,1,5.1-2.938q3.25-.938,6.5-1.88,14.4-4.172,28.8-8.369c4.421-1.287,8.829-2.738,13.292-3.861a7.5,7.5,0,0,1,8.851,4.816c.659,2.079.273,4.444.131,6.58-.173,2.61-.413,5.216-.68,7.815-.53,5.169-1.181,10.319-1.746,15.481q-.2,1.789-.369,3.58a1.241,1.241,0,0,0,1.231,1.231,1.257,1.257,0,0,0,1.231-1.231c.515-5.292,1.19-10.563,1.773-15.846.3-2.7.577-5.392.8-8.094a66.739,66.739,0,0,0,.428-7.613,9.839,9.839,0,0,0-7.668-9.158,12.9,12.9,0,0,0-6.6.628L311.912,176q-14.96,4.354-29.921,8.7l-7.005,2.031a26.594,26.594,0,0,0-6.386,2.25,12.4,12.4,0,0,0-4.461,4.651,15.36,15.36,0,0,0-1.723,6.743c-.646,12.052-1.091,24.114-1.686,36.169q-.1,2.036-.209,4.071c-.084,1.583,2.378,1.578,2.461,0Z" transform="translate(-100.208 -66.607)" fill="#211715"/>
    <path id="Path_28" data-name="Path 28" d="M231.18,186.432c-2.277,3.991-4.262,8.155-6.215,12.311q-3.384,7.2-6.505,14.525a106.961,106.961,0,0,0-5.61,15.105c-1.591,6.218-1.7,13.745,3.931,17.979a11.414,11.414,0,0,0,3.92,1.7,12.538,12.538,0,0,0,4.514.443c3.818-.372,7.235-2.242,10.389-4.312l-.622.168A3.885,3.885,0,0,0,237.038,243c.935-.881,1.846-1.788,2.752-2.7q2.01-2.01,3.99-4.046c1.108-1.136-.634-2.879-1.741-1.74-2.409,2.476-4.784,5.046-7.381,7.329-.087.076-.178.147-.263.225s.282-.143.014-.021c.792-.357.624-.212.246-.108a2.846,2.846,0,0,0-.753.423c-.5.322-1,.638-1.514.94a21.115,21.115,0,0,1-5.455,2.415,10.4,10.4,0,0,1-5.064.1,9.616,9.616,0,0,1-3.963-1.687c-3.063-2.53-3.768-6.425-3.516-10.211.29-4.36,1.864-8.553,3.417-12.6,2.042-5.317,4.349-10.536,6.7-15.723,2.738-6.051,5.5-12.15,8.8-17.923a1.232,1.232,0,0,0-2.125-1.242Z" transform="translate(-81.509 -71.481)" fill="#211715"/>
    <path id="Path_29" data-name="Path 29" d="M218.612,225.63c-3.627-.923-6.871,1.579-8.123,4.861a12.508,12.508,0,0,0-.638,5.409c.083,1.056.246,2.108.434,3.15.114.636.6,1.865.234,2.461-.834,1.354,1.292,2.589,2.125,1.242.889-1.442.2-3.268-.062-4.8a14.981,14.981,0,0,1-.185-5.117c.469-2.6,2.523-5.6,5.561-4.829a1.232,1.232,0,0,0,.654-2.373Z" transform="translate(-80.694 -86.714)" fill="#211715"/>
    <path id="Path_30" data-name="Path 30" d="M1.542,205.239l18.091-3.458c1.554-.3.9-2.669-.654-2.373Q9.934,201.13.888,202.865c-1.554.3-.9,2.669.655,2.373Z" transform="translate(0 -76.692)" fill="#211715"/>
    <path id="Path_31" data-name="Path 31" d="M16.175,136.433a14.855,14.855,0,0,0-10.412,12.58c-.318,2.944.427,5.965.861,8.868q.731,4.916,1.45,9.835.807,5.5,1.608,11a1.239,1.239,0,0,0,1.514.861,1.263,1.263,0,0,0,.861-1.514q-1.362-9.3-2.733-18.6-.322-2.18-.648-4.36a38.657,38.657,0,0,1-.521-3.967,12.145,12.145,0,0,1,8.676-12.329c1.5-.481.861-2.859-.655-2.373Z" transform="translate(-2.187 -52.454)" fill="#211715"/>
    <path id="Path_32" data-name="Path 32" d="M50.635,66.5c-4.031-1.85-4.119-4.632-4.164-6.3a18.574,18.574,0,0,1,.969-6.558c.882-2.9,2.5-8.787,2.239-19.19a49.953,49.953,0,0,1-.274-6.584c.012-1.025.038-1.892.062-2.461.246-6.792,4.055-14.65,9.065-17.744,6.037-4.85,11.493-5.94,16.927-5.6,7.713.48,13.882,3.538,17.982,8.488A23.727,23.727,0,0,1,98.1,21.206,37.8,37.8,0,0,1,97.71,34c-.734,8.153,1.7,16.751,1.121,23.423a9,9,0,0,1-4.154,6.7Z" transform="translate(-17.871 -0.769)" fill="#a98a75"/>
    <path id="Path_33" data-name="Path 33" d="M73.091,66.181a26.5,26.5,0,0,1-6.14-4.4,27.45,27.45,0,0,1-3.05-3.823s-.878-1.354-1.249-2.132c0,0-.1-.2-.25-.521a6.25,6.25,0,0,1-3.376-.7,8.582,8.582,0,0,1-3.24-3.818,8,8,0,0,1-.436-5.89A2.96,2.96,0,0,1,57.812,43.2a3.048,3.048,0,0,1,3.122,1.346c6.219-1.938,11.314-7.611,15.6-11.67a.192.192,0,0,1,.318.185,13.768,13.768,0,0,0-.415,3.344.868.868,0,0,0,1.169.814,30.874,30.874,0,0,0,13.564-9.255,59.053,59.053,0,0,0,2.756,6.25c1.245,2.394,4.517,6.517,7.233,7.48-.492,3.478-.8,6.983-1.149,10.188-.57,5.163-2.149,9.831-5.77,12.789a16.614,16.614,0,0,1-12.676,3.938A22.744,22.744,0,0,1,79.3,68.3a30.246,30.246,0,0,1-6.206-2.122" transform="translate(-21.141 -10.758)" fill="#fff"/>
    <path id="Path_34" data-name="Path 34" d="M54.884,172.6c-9.313-.026-17.107-2.962-22.062-8.369a20.43,20.43,0,0,1-5.013-8.664c-1.661-5.726-1.186-12.772.087-18.637,1.436-6.617,2.584-15.2,5.492-20.562,4.52-8.332,9.531-10.516,17.79-15.312a31.164,31.164,0,0,0,19.515,5.107c4.568-.276,8.844-1.706,11.709-5.632,10.685,3.635,15.617,9.652,17.406,21.139,1.556,9.985,1.464,20.916,1.385,31.444-.116,1.834-.185,2.769-2.022,3.938L79.4,162.57l-21.714,6.65Z" transform="translate(-10.286 -38.67)" fill="#272f56"/>
    <path id="Path_35" data-name="Path 35" d="M69.442,96.615a30.75,30.75,0,0,1-3.08-1.823,22.856,22.856,0,0,0,2.886-1.658,4.38,4.38,0,0,0,1.631-2.129,35.987,35.987,0,0,0,1.414-6.661,27.3,27.3,0,0,0,5.181,3.521,30.245,30.245,0,0,0,6.206,2.122,22.737,22.737,0,0,0,2.261.315,17.414,17.414,0,0,0,6.2-.489c.093.714.178,1.354.178,1.354a2.293,2.293,0,0,0,.165.7,1.732,1.732,0,0,0,.45.545,12.245,12.245,0,0,0,4.208,2.535c-2.848,3.437-6.9,4.727-11.212,4.984a31.55,31.55,0,0,1-16.488-3.317Z" transform="translate(-25.526 -32.443)" fill="#fff"/>
    <path id="Path_36" data-name="Path 36" d="M79.429,204.084c.888,1.887,3.234,2.4,5.277,2.821,1.538.316,3.824-.062,5.3.343.805.22,1.668,1.25,2.455,1.527a1.774,1.774,0,0,0,2.2-.667,2.2,2.2,0,0,0,.289-1.908,5.143,5.143,0,0,0-.449-.753c1.235-.07,2.653-.154,2.653-.154a10.6,10.6,0,0,0,6.83,2.1c1.511-.123,3.483-.22,4.471-1.618a83.605,83.605,0,0,0,7.107-8.742,4.585,4.585,0,0,0,.8-4.26c-.972-1.986-3.765-4.453-6.5-5.834a3.055,3.055,0,0,0-2.554-.081c-2.318.978-5.266,1.338-7.526,2.362-.18.084-.354.164-.524.255a11.211,11.211,0,0,1-1.212.669,11.469,11.469,0,0,0-4.392-1.292,73.04,73.04,0,0,0-9.805.865,8.534,8.534,0,0,0-4.123,2.083,9.9,9.9,0,0,0-2.373,4.928,12.084,12.084,0,0,0-.431,5.6l1.1.77Z" transform="translate(-29.519 -71.784)" fill="#fff"/>
    <path id="Path_37" data-name="Path 37" d="M68.27,94.987a11.9,11.9,0,0,0,2.314-1.543,5.672,5.672,0,0,0,1.6-2.639,38.3,38.3,0,0,0,1.194-5.427,1.271,1.271,0,0,0-.861-1.514A1.239,1.239,0,0,0,71,84.726a37.147,37.147,0,0,1-1.058,4.958c-.068.238-.137.476-.21.713-.026.084-.05.169-.082.251s-.028.076,0-.008l-.062.115a3.487,3.487,0,0,1-.649.851,9.181,9.181,0,0,1-1.92,1.257,1.231,1.231,0,0,0,1.242,2.125Z" transform="translate(-25.546 -32.242)" fill="#211715"/>
    <path id="Path_38" data-name="Path 38" d="M129.368,140.438c.239,4.554.9,9.107.516,13.669a44.143,44.143,0,0,1-1.325,7.475,26.792,26.792,0,0,0-.831,3.58,20.1,20.1,0,0,0-.015,3.372c.074,1.577,2.536,1.586,2.461,0a18.587,18.587,0,0,1,0-3.29,32.254,32.254,0,0,1,.9-3.564,47.9,47.9,0,0,0,1.271-7.574c.385-4.564-.278-9.116-.516-13.669C131.746,138.862,129.284,138.853,129.368,140.438Z" transform="translate(-49.1 -53.563)" fill="#211715"/>
    <path id="Path_39" data-name="Path 39" d="M66.09,102.032a32.24,32.24,0,0,0,13.642,4.73c4.025.449,8.454.361,12.256-1.165a14.317,14.317,0,0,0,5.863-4.246,1.266,1.266,0,0,0,0-1.74,1.239,1.239,0,0,0-1.74,0,13.791,13.791,0,0,1-9.918,4.789A31.486,31.486,0,0,1,74.6,103.241a29.479,29.479,0,0,1-7.265-3.333c-1.345-.846-2.581,1.283-1.242,2.125Z" transform="translate(-25.199 -38.178)" fill="#211715"/>
    <path id="Path_40" data-name="Path 40" d="M106.545,94.666a4.119,4.119,0,0,0,.242,1.108,2.7,2.7,0,0,0,.631.913,14.427,14.427,0,0,0,1.391,1.139,13.489,13.489,0,0,0,2.877,1.583,1.23,1.23,0,0,0,1.389-1.807,1.449,1.449,0,0,0-.738-.566c-.2-.084.2.089.062.026L112.268,97c-.1-.044-.2-.089-.292-.137-.206-.1-.408-.2-.608-.316a12.411,12.411,0,0,1-1.141-.721q-.136-.1-.269-.2c-.031-.024-.174-.132-.023-.017s-.017-.014-.051-.042q-.264-.212-.516-.436c-.089-.079-.181-.158-.265-.242-.018-.018-.094-.078-.1-.1,0,.055.16.239.044.046-.023-.038-.1-.2-.017-.015s.008-.006,0-.054a3.386,3.386,0,0,1-.062-.36l.044.327L109,94.665a1.354,1.354,0,0,0-.361-.87,1.231,1.231,0,0,0-1.741,0,1.179,1.179,0,0,0-.36.87Z" transform="translate(-40.98 -35.939)" fill="#211715"/>
    <path id="Path_41" data-name="Path 41" d="M108.53,205.6a12.212,12.212,0,0,0,9.8,1.992,5.7,5.7,0,0,0,2.009-.79,12.254,12.254,0,0,0,2.084-2.114c1.03-1.143,2.027-2.313,2.976-3.523,1.041-1.326,2.031-2.691,3.049-4.032a6.2,6.2,0,0,0,1.354-4.412c-.185-1.625-1.4-3.008-2.523-4.118a18.854,18.854,0,0,0-4.57-3.364,4.563,4.563,0,0,0-3.221-.482c-.98.238-1.921.689-2.9.959a25.656,25.656,0,0,0-6.03,1.994,1.232,1.232,0,0,0,1.242,2.125,17.993,17.993,0,0,1,4.436-1.477c.751-.2,1.5-.393,2.239-.635a5.611,5.611,0,0,1,2.221-.615,5.148,5.148,0,0,1,1.986.964,16.825,16.825,0,0,1,1.937,1.426,8.732,8.732,0,0,1,2.683,3.145,3.519,3.519,0,0,1-.8,3.018c-.872,1.146-1.713,2.315-2.594,3.454q-1.165,1.506-2.422,2.938-.745.85-1.511,1.68a4.038,4.038,0,0,1-1.487,1.271,9.046,9.046,0,0,1-4.072.376,9.76,9.76,0,0,1-4.636-1.9,1.238,1.238,0,0,0-1.684.442,1.26,1.26,0,0,0,.441,1.684Z" transform="translate(-41.518 -71.027)" fill="#211715"/>
    <path id="Path_42" data-name="Path 42" d="M118.688,197.98a6.34,6.34,0,0,0,.985-.308,6.867,6.867,0,0,0,1.116-.542,1.292,1.292,0,0,0,.566-.735.93.93,0,0,0,.022-.492.914.914,0,0,0-.146-.458,1.231,1.231,0,0,0-1.684-.442,5.048,5.048,0,0,1-.749.388l.294-.123a6.428,6.428,0,0,1-1.058.337,1.252,1.252,0,0,0-.735.566.911.911,0,0,0-.146.458.937.937,0,0,0,.022.492,1.246,1.246,0,0,0,.565.735,1.332,1.332,0,0,0,.948.123Z" transform="translate(-45.053 -74.943)" fill="#211715"/>
    <path id="Path_43" data-name="Path 43" d="M57.064,157.389c-1.06,3.975-1.931,8.019-1.553,12.145a10.308,10.308,0,0,0,1.873,5.626,13.5,13.5,0,0,0,5.892,4.037,32.883,32.883,0,0,0,6.338,1.938c1.546.317,2.207-2.055.654-2.373a31.764,31.764,0,0,1-4.972-1.383,14.2,14.2,0,0,1-5.438-3.081,7.257,7.257,0,0,1-1.866-4.561,21.017,21.017,0,0,1,.009-4.9,55.241,55.241,0,0,1,1.436-6.8,1.232,1.232,0,0,0-2.373-.654Z" transform="translate(-21.318 -60.205)" fill="#211715"/>
    <path id="Path_44" data-name="Path 44" d="M51,98.4c-5.014,2.954-10.5,5.531-14.612,9.756a29.08,29.08,0,0,0-5.212,7.446,43.893,43.893,0,0,0-3.124,9.731c-.772,3.446-1.373,6.929-2.111,10.384a49.832,49.832,0,0,0-1.188,11.458,28.24,28.24,0,0,0,2.2,10.838,23.175,23.175,0,0,0,5.957,7.89c5.813,5.081,13.629,7,21.2,7.041a1.231,1.231,0,0,0,0-2.461c-6.382-.037-12.9-1.444-18.139-5.256a21.937,21.937,0,0,1-6-6.68,22.5,22.5,0,0,1-2.694-9.76,43.792,43.792,0,0,1,.725-10.9c.615-3.31,1.306-6.617,1.99-9.915a58.557,58.557,0,0,1,2.639-9.619,26.152,26.152,0,0,1,4.459-7.323c4.061-4.725,9.873-7.39,15.143-10.5A1.231,1.231,0,0,0,51,98.4Z" transform="translate(-9.52 -37.781)" fill="#211715"/>
    <path id="Path_45" data-name="Path 45" d="M117.109,101.257a27.137,27.137,0,0,1,8.246,4.439,19.636,19.636,0,0,1,5.19,6.744,34.07,34.07,0,0,1,2.646,9.723,125.018,125.018,0,0,1,1.127,14.062c.173,5.4.129,10.814.089,16.219a1.231,1.231,0,0,0,2.461,0c.074-9.943.185-19.942-1.147-29.817-.911-6.742-2.835-13.538-8.088-18.214a29.66,29.66,0,0,0-9.865-5.533c-1.493-.536-2.137,1.842-.654,2.373Z" transform="translate(-44.724 -38.004)" fill="#211715"/>
    <path id="Path_46" data-name="Path 46" d="M92.92,214.891a3.462,3.462,0,0,1,1.588,1.348c.27.411.375,1.181-.25,1.365s-1.378-.677-1.828-1a4.651,4.651,0,0,0-2.338-.789,41.355,41.355,0,0,1-4.969-.327c-1.4-.316-3.008-.7-3.712-2.08-.718-1.412-2.842-.168-2.125,1.242,1.039,2.045,3.295,2.8,5.392,3.257a15.884,15.884,0,0,0,3.5.314,4.907,4.907,0,0,1,3.01.51c.967.686,1.814,1.428,3.093,1.344a3.06,3.06,0,0,0,2.708-2.142c.9-2.4-1.324-4.623-3.411-5.415a1.241,1.241,0,0,0-1.514.861,1.257,1.257,0,0,0,.861,1.514Z" transform="translate(-30.44 -81.729)" fill="#211715"/>
    <path id="Path_47" data-name="Path 47" d="M103.85,197.994c.1-3.334-2.624-6.3-5.306-7.929a12.7,12.7,0,0,0-7.384-1.785c-2.255.123-4.511.342-6.75.639-2.751.364-5.4,1.281-7.121,3.6a13.214,13.214,0,0,0-1.931,4.784,13.443,13.443,0,0,0-.364,5.979c.32,1.551,2.693.894,2.374-.654a10.161,10.161,0,0,1,.3-4.393,14.359,14.359,0,0,1,1.235-3.674c1.132-2.047,3.327-2.878,5.527-3.186,1.846-.258,3.815-.439,5.716-.574a12.132,12.132,0,0,1,5.556.577c2.548,1,5.784,3.595,5.691,6.608-.049,1.585,2.412,1.583,2.461,0Z" transform="translate(-28.777 -72.411)" fill="#211715"/>
    <path id="Path_48" data-name="Path 48" d="M103.6,200.113a13.547,13.547,0,0,1,2.292.573c.152.053.3.11.452.169.106.042.2.087.041.015.077.034.154.068.23.1.29.135.574.282.849.445.239.141.473.292.7.455.024.018.21.185.073.053s.03.026.062.054q.148.123.287.253a7.474,7.474,0,0,1,.629.673c.049.058.1.118.145.177.231.284-.067-.1.055.069s.233.319.344.483a1.231,1.231,0,1,0,2.125-1.242,9.934,9.934,0,0,0-3.1-3.053,12.81,12.81,0,0,0-4.531-1.6,1.261,1.261,0,0,0-1.514.861,1.245,1.245,0,0,0,.861,1.514Z" transform="translate(-39.501 -76.046)" fill="#211715"/>
    <path id="Path_49" data-name="Path 49" d="M103.617,207.95l.139.012c.225.017-.108-.029-.129-.018.052-.026.23.042.29.056a5.292,5.292,0,0,1,.626.185l.151.057c.2.071-.22-.1-.082-.037.1.046.2.091.3.14a7.033,7.033,0,0,1,.62.347q.145.091.286.189c.047.033.094.066.14.1.159.116,0,.012-.058-.048.161.158.349.289.511.446s.318.337.47.513c.091.106-.185-.263-.055-.07l.092.13c.065.1.123.193.185.292A1.231,1.231,0,0,0,109.225,209a7.23,7.23,0,0,0-2.451-2.436,6.892,6.892,0,0,0-3.157-1.077,1.237,1.237,0,0,0-1.231,1.231,1.26,1.26,0,0,0,1.231,1.231Z" transform="translate(-39.382 -79.042)" fill="#211715"/>
    <path id="Path_50" data-name="Path 50" d="M93.349,57.592c.286-1.054-.006-3.446-1.988-3.583-2.611.1-2.652,3.01-1.726,4.343A2.069,2.069,0,0,0,93.349,57.592Z" transform="translate(-34.267 -20.775)" fill="#211715"/>
    <path id="Path_51" data-name="Path 51" d="M118.795,57.518c.261-1.057-.006-3.457-1.821-3.595-2.391.1-2.427,3.019-1.58,4.357C116.088,59.376,118.04,59.77,118.795,57.518Z" transform="translate(-44.192 -20.741)" fill="#211715"/>
    <path id="Path_52" data-name="Path 52" d="M104.85,64.409a17.957,17.957,0,0,1,1.019,1.893l-.123-.294a1.164,1.164,0,0,1,.081.276l-.044-.327a.78.78,0,0,1,0,.114l.044-.327a.471.471,0,0,1-.027.105l.123-.294a.326.326,0,0,1-.038.062l.193-.249a1.27,1.27,0,0,1-.179.166l.249-.192a1.191,1.191,0,0,1-.215.123l.294-.123a1.169,1.169,0,0,1-.257.069l.327-.044c-.2.026-.4.044-.6.073a1.231,1.231,0,0,0-.294,2.25l.294.123a1.242,1.242,0,0,0,.654,0l.026,0-.327.044a5.476,5.476,0,0,0,.7-.094,2.338,2.338,0,0,0,.967-.551,1.6,1.6,0,0,0,.529-1.217,2.538,2.538,0,0,0-.322-1.084c-.287-.6-.611-1.176-.949-1.745a1.277,1.277,0,0,0-.738-.566,1.231,1.231,0,0,0-1.39,1.808Z" transform="translate(-40.263 -24.061)" fill="#211715"/>
    <path id="Path_53" data-name="Path 53" d="M60.026,51.4a4.752,4.752,0,0,0-5.383.233,5,5,0,0,0-1.682,4.044,10.227,10.227,0,0,0,4.712,8.751,6.488,6.488,0,0,0,5.713.361,1.24,1.24,0,0,0,.441-1.684,1.26,1.26,0,0,0-1.684-.442,3.365,3.365,0,0,1-2.092.04,3.754,3.754,0,0,1-1.734-.8,7.775,7.775,0,0,1-2.446-3.515c-.431-1.26-.748-3.1-.161-4.274a2.568,2.568,0,0,1,.19-.313c-.151.217.054-.056.084-.085a1.682,1.682,0,0,1,.654-.416,2.3,2.3,0,0,1,2.148.225A1.231,1.231,0,1,0,60.029,51.4Z" transform="translate(-20.371 -19.492)" fill="#211715"/>
    <path id="Path_54" data-name="Path 54" d="M77.754,81.765a23.778,23.778,0,0,1-5.795-4.115,21.763,21.763,0,0,1-4.2-5.8,1.243,1.243,0,0,0-1.684-.441,1.256,1.256,0,0,0-.441,1.684,20.886,20.886,0,0,0,1.775,2.892,25.468,25.468,0,0,0,2.812,3.4,26.522,26.522,0,0,0,6.293,4.5c1.4.732,2.646-1.391,1.242-2.125Z" transform="translate(-25.183 -27.405)" fill="#211715"/>
    <path id="Path_55" data-name="Path 55" d="M110.379,50.72c-.441,3.363-.677,6.751-1.124,10.112a21.352,21.352,0,0,1-2.338,7.664,15.089,15.089,0,0,1-13.292,7.248A23.351,23.351,0,0,1,84.272,73.4a1.267,1.267,0,0,0-1.684.442,1.241,1.241,0,0,0,.441,1.684c5.779,2.65,12.3,3.81,18.281,1.091a17.257,17.257,0,0,0,6.9-5.557,20.318,20.318,0,0,0,3.186-8.108c.748-4.028.915-8.167,1.448-12.228a1.237,1.237,0,0,0-1.231-1.231,1.263,1.263,0,0,0-1.231,1.231Z" transform="translate(-31.704 -19.036)" fill="#211715"/>
    <path id="Path_56" data-name="Path 56" d="M6.948.3a16.534,16.534,0,0,0-3.1-.3A18.85,18.85,0,0,0,.833.227C.228.3-.126.557.042.808a1.693,1.693,0,0,0,1.4.329c.421-.067.852-.122,1.29-.165.092-.008.189-.011.28-.021-.053.006-.241.011-.083.005L3.114.95q.33-.01.66-.007c.22,0,.424.007.635.017.04,0,.272.014.085,0-.17-.01.01,0,.044,0q.153.01.306.024.31.026.612.066c.1.013.2.03.295.044.133.017-.2-.044-.088-.016.044.011.1.019.143.029A2.2,2.2,0,0,0,7.359.943C7.676.718,7.493.428,6.952.3Z" transform="translate(66.197 47.897) rotate(180)" fill="#211715"/>
    <path id="Path_57" data-name="Path 57" d="M86.178,49.591l-1.289,1.184a.923.923,0,0,0-.255.4,1.264,1.264,0,0,0,.255,1.345,1.238,1.238,0,0,0,.87.361l.327-.044a1.231,1.231,0,0,0,.543-.317l1.285-1.183a1.19,1.19,0,0,0,.255-1.345.923.923,0,0,0-.255-.4,1.236,1.236,0,0,0-.87-.36l-.327.044a1.231,1.231,0,0,0-.543.316Z" transform="translate(-32.519 -18.937)" fill="#211715"/>
    <path id="Path_58" data-name="Path 58" d="M144.468,185.212c-.025.4-.049.8-.1,1.192l.044-.327a4.133,4.133,0,0,1-.256,1.009l.123-.294a2.97,2.97,0,0,1-.376.64l.193-.249a4.263,4.263,0,0,1-.738.716l.249-.193c-.178.136-.361.262-.55.383a1.231,1.231,0,1,0,1.242,2.125,5.279,5.279,0,0,0,2.1-2.162,8.111,8.111,0,0,0,.534-2.84,1.237,1.237,0,0,0-1.231-1.231,1.26,1.26,0,0,0-1.231,1.231Z" transform="translate(-54.791 -70.768)" fill="#211715"/>
    <path id="Path_59" data-name="Path 59" d="M54.775,12.2a24.952,24.952,0,0,0-6.624,12.04c-1.14,4.645-.761,9.432-.492,14.149a57.265,57.265,0,0,1-.871,13.241q-.36,1.995-.89,3.954a41.518,41.518,0,0,0-1.259,5.029,14.6,14.6,0,0,0,.146,6.011,7.863,7.863,0,0,0,4.434,4.728c1.424.677,2.675-1.447,1.242-2.125a5.588,5.588,0,0,1-3.343-3.4,12.984,12.984,0,0,1-.1-4.6A35.036,35.036,0,0,1,48.225,56.4q.5-1.795.845-3.627a65.5,65.5,0,0,0,1.073-12.2c.006-4.578-.757-9.207-.012-13.775a23.066,23.066,0,0,1,6.384-12.866c1.148-1.1-.6-2.836-1.74-1.74Z" transform="translate(-17.076 -4.557)" fill="#211715"/>
    <path id="Path_60" data-name="Path 60" d="M126.063,50.544a56.739,56.739,0,0,0,.277,13.872c.246,2.221.514,4.443.649,6.675a19.86,19.86,0,0,1-.141,5.448,8.214,8.214,0,0,1-3.415,4.845,1.265,1.265,0,0,0-.441,1.684,1.241,1.241,0,0,0,1.684.441,11.288,11.288,0,0,0,4.056-4.818,13.586,13.586,0,0,0,.8-5.392c-.03-4.631-.873-9.219-1.2-13.831a40.586,40.586,0,0,1,.11-8.269,1.274,1.274,0,0,0-.861-1.514,1.239,1.239,0,0,0-1.514.861Z" transform="translate(-47.248 -19.095)" fill="#211715"/>
    <path id="Path_61" data-name="Path 61" d="M69,6.553A22.1,22.1,0,0,1,80.417,2.492,27.8,27.8,0,0,1,91.376,4.163,21.671,21.671,0,0,1,99.7,9.681a21.383,21.383,0,0,1,5.059,10.375,32.8,32.8,0,0,1-.292,13.013c-.33,1.545,2.042,2.205,2.373.655,1.771-8.288,1.089-17.813-4.4-24.634C97.468,2.916,89.467.01,81.7,0A24.484,24.484,0,0,0,67.76,4.431c-1.3.889-.071,3.023,1.242,2.125Z" transform="translate(-25.851)" fill="#211715"/>
    <path id="Path_62" data-name="Path 62" d="M111.907,27.737a37.371,37.371,0,0,0,3.938,8.221c1.585,2.295,3.64,4.8,6.234,5.985a1.268,1.268,0,0,0,1.684-.441,1.242,1.242,0,0,0-.442-1.684c-2.277-1.039-4.075-3.223-5.454-5.251a35.026,35.026,0,0,1-3.589-7.484,1.265,1.265,0,0,0-1.514-.861,1.241,1.241,0,0,0-.861,1.514Z" transform="translate(-43.027 -10.072)" fill="#211715"/>
    <path id="Path_63" data-name="Path 63" d="M95.638,26.348a28.95,28.95,0,0,1-11.672,8.416q-.423.172-.85.335a1.354,1.354,0,0,0-.369.137l-.123.045a.268.268,0,0,1,.308.22c.208.111.038.166.087-.134.03-.177.014-.387.025-.57.023-.358.055-.716.111-1.07a4.472,4.472,0,0,0,.2-1.908,1.407,1.407,0,0,0-1.723-.912,3.658,3.658,0,0,0-1.376,1.066q-.65.628-1.3,1.26c-.905.883-1.812,1.765-2.739,2.625a37.95,37.95,0,0,1-6.75,5.183,1.232,1.232,0,0,0,1.242,2.125c4.591-2.647,8.226-6.555,12.034-10.175l-.543.316.156-.052-.949-.123.133.078-.565-.738.03.161v-.652c-.423,1.708-1.244,4.979,1.058,5.686.973.3,2.04-.315,2.914-.681,1.018-.426,2.02-.885,3-1.4a29.591,29.591,0,0,0,9.4-7.5,1.269,1.269,0,0,0,0-1.741,1.24,1.24,0,0,0-1.74,0Z" transform="translate(-26.492 -9.998)" fill="#211715"/>
  </g>
</svg>
